<?xml version="1.0" encoding="UTF-8" standalone="no"?>
<svg width="24px" height="30px" viewBox="0 0 24 30" version="1.1" xmlns="http://www.w3.org/2000/svg" xmlns:xlink="http://www.w3.org/1999/xlink">
    <!-- Generator: Sketch 40.2 (33826) - http://www.bohemiancoding.com/sketch -->
    <title>pdf</title>
    <desc>Created with Sketch.</desc>
    <defs></defs>
    <g id="Page-1" stroke="none" stroke-width="1" fill="none" fill-rule="evenodd">
        <g id="pdf" fill="#FC3938">
            <path d="M0,0 L0,29.9765867 L23.7938084,29.9765867 L23.7938084,4.17461818 L19.3842286,0 L0,0 L0,0 Z M2.16307349,2.11955663 L18.7291264,2.11955663 L21.6307349,4.74780686 L21.6307349,27.85703 L2.16307349,27.85703 L2.16307349,2.11955663 L2.16307349,2.11955663 Z" id="Fill-1"></path>
            <polygon id="Fill-2" points="17.2288804 4.22838754 17.2288804 7.43830467 20.4864691 7.43830467 20.4864691 6.36853416 18.3153613 6.36853416 18.3153613 4.22838754"></polygon>
            <path d="M18.9108442,18.5645705 C18.7983125,18.8991486 18.3444349,19.0390862 17.5254546,18.751578 C17.3016417,18.6739763 16.9940552,18.4691585 16.6439568,18.1676566 C16.4451509,17.9946428 15.9700173,17.5392095 15.9700173,17.5392095 C15.9700173,17.5392095 16.7614898,17.4565191 17.0078091,17.4514305 C17.4104223,17.4425254 17.7317626,17.4756015 17.9330692,17.5455703 C18.7507992,17.8318063 19.0246262,18.2287203 18.9108442,18.5645705 M13.0216882,16.9489273 C12.0076531,17.1906377 10.997369,17.4705129 9.99958845,17.7681983 C10.1233733,17.4730572 10.2521595,17.1639223 10.3896981,16.8255277 C10.4584675,16.6537861 10.5297375,16.4769559 10.6022579,16.2963092 C10.8960905,15.5597285 11.1986756,14.7773501 11.49876,13.989883 C11.9563887,14.736641 12.4627811,15.4795824 13.0366924,16.1792704 C13.2179934,16.4006263 13.4055462,16.6105327 13.5943492,16.8166226 C13.4080469,16.8598761 13.2204941,16.9018573 13.0216882,16.9489273 M7.387604,20.5033424 C7.1887981,20.8595472 6.9949936,21.1228844 6.8324479,21.2615498 C6.16851121,21.827661 5.69462796,21.8620093 5.46956467,21.5897671 C5.24700209,21.318797 5.36203444,20.8519143 6.02597113,20.2845309 C6.2072721,20.1305995 6.53736492,19.967763 6.97248727,19.8176482 C7.22005689,19.7324134 7.84773338,19.5530389 7.84773338,19.5530389 C7.84773338,19.5530389 7.51013845,20.285803 7.387604,20.5033424 M10.9160962,8.25116908 C11.2624435,8.22063724 11.5725307,8.58447501 11.6488022,9.4635376 C11.6688078,9.70270368 11.6112916,10.0703579 11.4812551,10.5194304 C11.4087347,10.7725903 11.1974253,11.3844993 11.1936742,11.3972209 L11.1886728,11.3946765 C11.17867,11.3768663 10.7948121,10.6962607 10.6910329,10.4723605 C10.5184844,10.1021619 10.4184562,9.79048273 10.399701,9.57421552 C10.3234295,8.69642509 10.5684984,8.28170092 10.9160962,8.25116908 M18.3406838,16.3433791 C17.9730805,16.2136188 17.5179525,16.1665488 16.979051,16.1792704 C16.6902198,16.1856312 16.3813829,16.2098023 16.0587922,16.2492392 C15.7186966,16.2899484 15.3798513,16.3446512 15.0585109,16.4057149 C15.0235011,16.4120757 14.9984941,16.4184365 14.9672353,16.4247973 C14.6371425,16.0953079 14.3108007,15.7480082 13.9969625,15.3638159 C13.3917923,14.625963 12.8503901,13.8321352 12.3802579,13.0383073 C12.2589738,12.8322174 12.1614463,12.6592036 12.0739217,12.4989114 C12.1739498,12.272467 12.2752283,12.0396617 12.3690047,11.7954069 C12.4915392,11.4799113 12.5965687,11.1720485 12.6815926,10.8769074 C12.8503901,10.2891695 12.9304126,9.78157761 12.8941524,9.35158751 C12.7641158,7.84535003 11.9438852,6.88232488 10.8073156,6.98409768 C9.67074598,7.08459832 9.02431422,8.17992812 9.15435078,9.68489344 C9.18811027,10.0792631 9.33065035,10.5207026 9.56071505,11.016845 C9.68449985,11.2827265 9.83079099,11.5600573 9.99708775,11.843749 C10.172137,12.1439788 10.3584394,12.4353034 10.5459921,12.71009 C10.5697488,12.7457105 10.5872537,12.7698815 10.6085097,12.8016855 C10.5609963,12.9276294 10.5197347,13.0383073 10.4684703,13.1731563 C10.1271243,14.0751177 9.77952657,14.9770792 9.443182,15.817977 C9.37191196,15.9973516 9.30189227,16.1716375 9.23312293,16.3408348 C8.94929312,17.0417949 8.6942214,17.646071 8.47415952,18.1409412 C8.43789933,18.147302 8.40664054,18.1523907 8.36412858,18.1600236 C8.08404983,18.21091 7.7877165,18.2732459 7.49013283,18.345759 C7.16629177,18.4259051 6.85745493,18.5149563 6.57237477,18.6129126 C6.00221445,18.8088252 5.54708647,19.0339976 5.22199506,19.3100563 C4.08417512,20.2819866 3.77908933,21.5185261 4.51179536,22.407766 C5.24575174,23.2970059 6.49735367,23.2079547 7.63517361,22.2360244 C7.93400764,21.9828645 8.20783463,21.6101216 8.47415952,21.1343338 C8.61794995,20.8786296 8.75673898,20.5974823 8.88927625,20.2959803 C8.97179945,20.1115171 9.03931844,19.9283261 9.11183883,19.7438629 L9.11183883,19.7438629 L9.31939719,19.3024233 C10.6110104,18.8838827 11.9613901,18.5085955 13.3067684,18.1880111 C13.7794013,18.0760611 14.2132733,17.9793769 14.6108851,17.8954143 C14.7771818,18.0862383 14.9509807,18.2808788 15.1372831,18.4742472 C15.3710988,18.7159576 15.6049146,18.9385856 15.8349793,19.1370425 C16.2938583,19.5326843 16.7177275,19.8151038 17.11784,19.9550414 C18.5232352,20.4473674 19.721072,20.0758966 20.0924264,18.9792947 C20.4650312,17.8814206 19.7448287,16.8344329 18.3406838,16.3433791" id="Fill-1"></path>
        </g>
    </g>
</svg>