<?xml version="1.0" encoding="UTF-8" standalone="no"?>
<svg width="73px" height="42px" viewBox="0 0 73 42" version="1.1" xmlns="http://www.w3.org/2000/svg" xmlns:xlink="http://www.w3.org/1999/xlink">
    <!-- Generator: Sketch 40.2 (33826) - http://www.bohemiancoding.com/sketch -->
    <title>population</title>
    <desc>Created with Sketch.</desc>
    <defs></defs>
    <g id="Page-1" stroke="none" stroke-width="1" fill="none" fill-rule="evenodd">
        <g id="population" fill="#192127">
            <path d="M54.287975,41.2 C54.981013,41.2 55.597046,40.583966 55.597046,39.890928 L55.597046,34.885654 C55.597046,33.422574 54.981013,32.036498 53.825949,31.112447 C49.744726,27.801266 45.432489,25.414135 43.738397,24.567089 L43.738397,18.791772 C44.662447,17.944726 45.201477,16.712658 45.201477,15.403586 L45.201477,8.088186 C45.201477,3.775949 41.659283,0.233755 37.347046,0.233755 L35.806962,0.233755 C31.494726,0.233755 27.952532,3.775949 27.952532,8.088186 L27.952532,15.403586 C27.952532,16.712658 28.491561,17.944726 29.415612,18.791772 L29.415612,24.567089 C27.721519,25.414135 23.409283,27.801266 19.328059,31.112447 C18.172996,32.036498 17.556962,33.422574 17.556962,34.885654 L17.556962,39.890928 C17.556962,40.583966 18.172996,41.2 18.866034,41.2 C19.559072,41.2 20.175105,40.583966 20.175105,39.890928 L20.175105,34.885654 C20.175105,34.192616 20.483122,33.576582 20.945148,33.191561 C25.334388,29.572363 30.185654,27.108228 31.109705,26.723207 C31.648734,26.41519 32.033755,25.87616 32.033755,25.260127 L32.033755,18.252743 C32.033755,17.790717 31.802743,17.405696 31.417722,17.174684 C30.878692,16.789662 30.570675,16.173629 30.570675,15.557595 L30.570675,8.242194 C30.570675,5.316034 32.957806,3.005907 35.806962,3.005907 L37.347046,3.005907 C40.273207,3.005907 42.583333,5.393038 42.583333,8.242194 L42.583333,15.557595 C42.583333,16.250633 42.275316,16.866667 41.736287,17.174684 C41.351266,17.405696 41.120253,17.790717 41.120253,18.252743 L41.120253,25.260127 C41.120253,25.87616 41.505274,26.492194 42.044304,26.723207 C42.968354,27.185232 47.742616,29.572363 52.208861,33.191561 C52.74789,33.576582 52.978903,34.26962 52.978903,34.885654 L52.978903,39.890928 C52.978903,40.583966 53.594937,41.2 54.287975,41.2 M14.399789,11.553376 L15.631857,11.553376 C17.71097,11.553376 19.405063,13.247468 19.405063,15.326582 L19.405063,20.94789 C19.405063,21.332911 19.174051,21.717932 18.866034,21.948945 C18.481013,22.179958 18.25,22.564979 18.25,23.027004 L18.25,25.722152 C18.25,26.41519 18.866034,27.031224 19.559072,27.031224 C20.25211,27.031224 20.868143,26.41519 20.868143,25.722152 L20.868143,23.643038 C21.561181,22.95 22.023207,21.948945 22.023207,20.94789 L22.023207,15.326582 C22.023207,11.784388 19.174051,8.935232 15.631857,8.935232 L14.399789,8.935232 C10.857595,8.935232 8.008439,11.784388 8.008439,15.326582 L8.008439,20.94789 C8.008439,21.948945 8.39346,22.95 9.163502,23.643038 L9.163502,27.801266 C7.777426,28.494304 4.543249,30.342405 1.46308,32.80654 C0.53903,33.576582 0,34.731646 0,35.963713 L0,39.813924 C0,40.506962 0.616034,41.122996 1.309072,41.122996 C2.00211,41.122996 2.618143,40.583966 2.618143,39.890928 L2.618143,36.040717 C2.618143,35.578692 2.772152,35.193671 3.157173,34.962658 C6.545359,32.190506 10.241561,30.342405 10.934599,29.957384 C11.473629,29.726371 11.781646,29.110338 11.781646,28.571308 L11.781646,23.104008 C11.781646,22.641983 11.550633,22.256962 11.165612,22.025949 C10.857595,21.794937 10.626582,21.409916 10.626582,21.024895 L10.626582,15.326582 C10.626582,13.247468 12.320675,11.553376 14.399789,11.553376 M70.381857,39.890928 L70.381857,36.040717 C70.381857,35.578692 70.227848,35.193671 69.842827,34.962658 C66.454641,32.190506 62.758439,30.342405 62.065401,29.957384 C61.526371,29.726371 61.218354,29.110338 61.218354,28.571308 L61.218354,23.104008 C61.218354,22.641983 61.449367,22.256962 61.834388,22.025949 C62.142405,21.794937 62.373418,21.409916 62.373418,21.024895 L62.373418,15.326582 C62.373418,13.247468 60.679325,11.553376 58.600211,11.553376 L57.368143,11.553376 C55.28903,11.553376 53.594937,13.247468 53.594937,15.326582 L53.594937,20.94789 C53.594937,21.332911 53.825949,21.717932 54.133966,21.948945 C54.518987,22.179958 54.75,22.564979 54.75,23.027004 L54.75,25.645148 C54.75,26.338186 54.133966,26.954219 53.440928,26.954219 C52.74789,26.954219 52.131857,26.338186 52.131857,25.645148 L52.131857,23.643038 C51.438819,22.95 50.976793,21.948945 50.976793,20.94789 L50.976793,15.326582 C50.976793,11.784388 53.825949,8.935232 57.368143,8.935232 L58.600211,8.935232 C62.142405,8.935232 64.991561,11.784388 64.991561,15.326582 L64.991561,20.94789 C64.991561,21.948945 64.60654,22.95 63.836498,23.643038 L63.836498,27.801266 C65.222574,28.494304 68.456751,30.342405 71.53692,32.80654 C72.46097,33.576582 73,34.731646 73,35.963713 L73,39.813924 C73,40.506962 72.383966,41.122996 71.690928,41.122996 C70.99789,41.122996 70.381857,40.583966 70.381857,39.890928"></path>
        </g>
    </g>
</svg>