<?xml version="1.0" encoding="UTF-8" standalone="no"?>
<svg width="51px" height="51px" viewBox="0 0 51 51" version="1.1" xmlns="http://www.w3.org/2000/svg" xmlns:xlink="http://www.w3.org/1999/xlink">
    <!-- Generator: Sketch 40.1 (33804) - http://www.bohemiancoding.com/sketch -->
    <title>area_icon</title>
    <desc>Created with Sketch.</desc>
    <defs></defs>
    <g id="Page-1" stroke="none" stroke-width="1" fill="none" fill-rule="evenodd">
        <g id="Country-REPORT-V6" transform="translate(-380.000000, -440.000000)">
            <g id="area_icon" transform="translate(380.000000, 440.000000)">
                <path d="M25.4916447,2.42792553 C31.7700702,2.42792553 36.8782085,7.53606383 36.8782085,13.8144894 C36.8782085,18.7462979 29.4018255,30.7285851 25.4916447,36.4633723 C21.5814638,30.7296702 14.1045383,18.7490106 14.1045383,13.8144894 C14.1045383,7.53606383 19.2132191,2.42792553 25.4916447,2.42792553 M25.4916447,39.8082128 C25.8860809,39.8082128 26.255017,39.6166915 26.4828894,39.2949574 C27.0069957,38.5549149 39.3066766,21.078734 39.3066766,13.8150319 C39.3066766,6.19704255 33.1090915,0 25.4916447,0 C17.8736553,0 11.6760702,6.19758511 11.6760702,13.8150319 C11.6760702,21.078734 23.9768362,38.5549149 24.5004,39.2949574 C24.7277298,39.6166915 25.0972085,39.8082128 25.4916447,39.8082128" id="Fill-1" fill="#192127"></path>
                <path d="M21.7252404,13.8144894 C21.7252404,11.7365106 23.4147511,10.0464574 25.4916447,10.0464574 C27.5679957,10.0464574 29.2569638,11.7365106 29.2569638,13.8144894 C29.2569638,15.8919255 27.5679957,17.5819787 25.4916447,17.5819787 C23.4147511,17.5825213 21.7252404,15.8919255 21.7252404,13.8144894 M31.6859745,13.8144894 C31.6859745,10.3974894 28.9075596,7.61798936 25.4916447,7.61798936 C22.0757298,7.61798936 19.2967723,10.3974894 19.2967723,13.8144894 C19.2967723,17.2309468 22.0757298,20.0104468 25.4916447,20.0104468 C28.9075596,20.0104468 31.6859745,17.2314894 31.6859745,13.8144894" id="Fill-3" fill="#202B33"></path>
                <path d="M50.7052309,49.4575213 L44.4908266,27.0826277 C44.3448798,26.5568936 43.8663479,26.193383 43.3210819,26.193383 L39.0544436,26.193383 C38.3838479,26.193383 37.8402096,26.7375638 37.8402096,27.407617 C37.8402096,28.0776702 38.3838479,28.6218511 39.0544436,28.6218511 L42.3981989,28.6218511 L47.9371245,48.5682766 L2.81189043,48.5682766 L8.35244362,28.6218511 L11.9294968,28.6218511 C12.6000926,28.6218511 13.1437309,28.0776702 13.1437309,27.407617 C13.1437309,26.7375638 12.6000926,26.193383 11.9294968,26.193383 L7.42956064,26.193383 C6.88429468,26.193383 6.40576277,26.5568936 6.25981596,27.0826277 L0.0443265957,49.4575213 C-0.0571308511,49.8237447 0.0177414894,50.2154681 0.247784043,50.5176702 C0.477284043,50.8198723 0.834826596,50.9972872 1.21407128,50.9972872 L49.5344011,50.9972872 C49.9141883,50.9972872 50.2717309,50.8198723 50.5012309,50.5176702 C50.7307309,50.2154681 50.8066883,49.8237447 50.7052309,49.4575213" id="Fill-5" fill="#192127"></path>
            </g>
        </g>
    </g>
</svg>