<?xml version="1.0" encoding="UTF-8" standalone="no"?>
<svg width="52px" height="51px" viewBox="0 0 52 51" version="1.1" xmlns="http://www.w3.org/2000/svg" xmlns:xlink="http://www.w3.org/1999/xlink">
    <!-- Generator: Sketch 40.2 (33826) - http://www.bohemiancoding.com/sketch -->
    <title>major_languages</title>
    <desc>Created with Sketch.</desc>
    <defs></defs>
    <g id="Page-1" stroke="none" stroke-width="1" fill="none" fill-rule="evenodd">
        <g id="major_languages" fill="#192127">
            <path d="M37.965976,33.742008 C37.965976,40.043571 30.397834,45.142109 21.065689,45.142109 C18.50504,45.142109 16.058197,44.7411 13.72516,43.99637 C13.497547,43.939083 13.213031,43.939083 12.985417,43.99637 L3.937789,47.490873 L7.522698,41.704893 C7.807215,41.246597 7.750312,40.616441 7.351988,40.272719 C5.303469,38.324963 4.222306,36.033485 4.222306,33.684721 C4.222306,27.383157 11.790448,22.28462 21.122592,22.28462 C30.454737,22.28462 37.965976,27.440444 37.965976,33.742008 L37.965976,33.742008 L37.965976,33.742008 Z M39.047139,22.742915 C38.876429,22.685628 38.762622,22.628341 38.591912,22.628341 C38.478106,22.628341 38.364299,22.628341 38.250492,22.685628 C36.884813,23.143924 35.46223,23.430359 33.982743,23.602219 C30.568544,21.368029 26.016278,19.993142 21.065689,19.993142 C20.496656,19.993142 19.927623,19.993142 19.358589,20.050429 C16.911747,18.217247 15.43226,15.753909 15.43226,13.061422 C15.43226,7.103581 22.545175,2.291478 31.36519,2.291478 C40.185205,2.291478 47.298121,7.103581 47.298121,13.004135 C47.298121,15.238326 46.273861,17.357943 44.339148,19.191125 C43.940825,19.592134 43.883921,20.165003 44.168438,20.623298 L47.468831,25.950984 L39.047139,22.742915 L39.047139,22.742915 Z M46.558377,20.22229 C48.549994,18.102673 49.574254,15.639335 49.574254,13.061422 C49.574254,5.843268 41.380175,0 31.36519,0 C21.350206,0 13.156127,5.843268 13.156127,13.061422 C13.156127,15.811196 14.351097,18.331821 16.399617,20.451438 C8.091732,21.940898 1.889269,27.325871 1.889269,33.742008 C1.889269,36.491781 2.970433,39.069693 5.075855,41.303884 L0.18217,49.209482 C-0.102347,49.61049 -0.045444,50.18336 0.295976,50.527081 C0.52359,50.813516 0.86501,50.92809 1.149526,50.92809 C1.263333,50.92809 1.434043,50.92809 1.547849,50.870803 L13.383741,46.287848 C15.77368,47.032578 18.391233,47.433587 21.008786,47.433587 C31.592804,47.433587 40.185205,41.303884 40.185205,33.742008 C40.185205,30.7058 38.762622,27.841453 36.372683,25.549975 C37.112426,25.378115 37.795266,25.206254 38.535009,24.977106 L49.744964,29.330913 C49.85877,29.3882 50.02948,29.3882 50.143287,29.3882 C50.484707,29.3882 50.826127,29.21634 50.996837,28.987192 C51.281353,28.586183 51.338257,28.070601 51.110643,27.669592 L46.558377,20.22229 L46.558377,20.22229 Z"></path>
        </g>
    </g>
</svg>