<?xml version="1.0" encoding="UTF-8" standalone="no"?>
<svg width="52px" height="51px" viewBox="0 0 52 51" version="1.1" xmlns="http://www.w3.org/2000/svg" xmlns:xlink="http://www.w3.org/1999/xlink">
    <!-- Generator: Sketch 40.1 (33804) - http://www.bohemiancoding.com/sketch -->
    <title>major_languages</title>
    <desc>Created with Sketch.</desc>
    <defs></defs>
    <g id="Page-1" stroke="none" stroke-width="1" fill="none" fill-rule="evenodd">
        <g id="Country-REPORT-V6" transform="translate(-650.000000, -612.000000)" fill="#192127">
            <path d="M687.965976,645.742008 C687.965976,652.043571 680.397834,657.142109 671.065689,657.142109 C668.50504,657.142109 666.058197,656.7411 663.72516,655.99637 C663.497547,655.939083 663.213031,655.939083 662.985417,655.99637 L653.937789,659.490873 L657.522698,653.704893 C657.807215,653.246597 657.750312,652.616441 657.351988,652.272719 C655.303469,650.324963 654.222306,648.033485 654.222306,645.684721 C654.222306,639.383157 661.790448,634.28462 671.122592,634.28462 C680.454737,634.28462 687.965976,639.440444 687.965976,645.742008 L687.965976,645.742008 Z M689.047139,634.742915 C688.876429,634.685628 688.762622,634.628341 688.591912,634.628341 C688.478106,634.628341 688.364299,634.628341 688.250492,634.685628 C686.884813,635.143924 685.46223,635.430359 683.982743,635.602219 C680.568544,633.368029 676.016278,631.993142 671.065689,631.993142 C670.496656,631.993142 669.927623,631.993142 669.358589,632.050429 C666.911747,630.217247 665.43226,627.753909 665.43226,625.061422 C665.43226,619.103581 672.545175,614.291478 681.36519,614.291478 C690.185205,614.291478 697.298121,619.103581 697.298121,625.004135 C697.298121,627.238326 696.273861,629.357943 694.339148,631.191125 C693.940825,631.592134 693.883921,632.165003 694.168438,632.623298 L697.468831,637.950984 L689.047139,634.742915 Z M696.558377,632.22229 C698.549994,630.102673 699.574254,627.639335 699.574254,625.061422 C699.574254,617.843268 691.380175,612 681.36519,612 C671.350206,612 663.156127,617.843268 663.156127,625.061422 C663.156127,627.811196 664.351097,630.331821 666.399617,632.451438 C658.091732,633.940898 651.889269,639.325871 651.889269,645.742008 C651.889269,648.491781 652.970433,651.069693 655.075855,653.303884 L650.18217,661.209482 C649.897653,661.61049 649.954556,662.18336 650.295976,662.527081 C650.52359,662.813516 650.86501,662.92809 651.149526,662.92809 C651.263333,662.92809 651.434043,662.92809 651.547849,662.870803 L663.383741,658.287848 C665.77368,659.032578 668.391233,659.433587 671.008786,659.433587 C681.592804,659.433587 690.185205,653.303884 690.185205,645.742008 C690.185205,642.7058 688.762622,639.841453 686.372683,637.549975 C687.112426,637.378115 687.795266,637.206254 688.535009,636.977106 L699.744964,641.330913 C699.85877,641.3882 700.02948,641.3882 700.143287,641.3882 C700.484707,641.3882 700.826127,641.21634 700.996837,640.987192 C701.281353,640.586183 701.338257,640.070601 701.110643,639.669592 L696.558377,632.22229 Z" id="major_languages"></path>
        </g>
    </g>
</svg>