<?xml version="1.0" encoding="UTF-8" standalone="no"?>
<svg width="59px" height="44px" viewBox="0 0 59 44" version="1.1" xmlns="http://www.w3.org/2000/svg" xmlns:xlink="http://www.w3.org/1999/xlink">
    <!-- Generator: Sketch 40.1 (33804) - http://www.bohemiancoding.com/sketch -->
    <title>political_system</title>
    <desc>Created with Sketch.</desc>
    <defs></defs>
    <g id="Page-1" stroke="none" stroke-width="1" fill="none" fill-rule="evenodd">
        <g id="Country-REPORT-V6" transform="translate(-378.000000, -611.000000)" fill="#192127">
            <g id="political_system" transform="translate(378.000000, 611.000000)">
                <path d="M27.1244737,8.8154386 L23.1419737,8.8154386 C22.5923421,8.8154386 22.1467368,8.37312281 22.1467368,7.82582456 C22.1467368,7.27852632 22.5931184,6.83621053 23.1419737,6.83621053 L27.1244737,6.83621053 C27.6741053,6.83621053 28.1197105,7.27852632 28.1197105,7.82582456 C28.1197105,8.37312281 27.6741053,8.8154386 27.1244737,8.8154386" id="Fill-1"></path>
                <path d="M45.0449474,12.7754386 L25.134,12.7754386 C24.5843684,12.7754386 24.1387632,12.3331228 24.1387632,11.7858246 C24.1387632,11.2385263 24.5851447,10.7962105 25.134,10.7962105 L45.0457237,10.7962105 C45.5953553,10.7962105 46.0409605,11.2385263 46.0409605,11.7858246 C46.0409605,12.3331228 45.5945789,12.7754386 45.0449474,12.7754386" id="Fill-3"></path>
                <path d="M44.0497105,16.7354386 L22.1467368,16.7354386 C21.5971053,16.7354386 21.1515,16.2931228 21.1515,15.7458246 C21.1515,15.1985263 21.5978816,14.7562105 22.1467368,14.7562105 L44.0497105,14.7562105 C44.5993421,14.7562105 45.0449474,15.1985263 45.0449474,15.7458246 C45.0449474,16.2931228 44.5993421,16.7354386 44.0497105,16.7354386" id="Fill-5"></path>
                <path d="M45.0449474,20.6954386 L22.1467368,20.6954386 C21.5971053,20.6954386 21.1515,20.2531228 21.1515,19.7058246 C21.1515,19.1585263 21.5978816,18.7162105 22.1467368,18.7162105 L45.0449474,18.7162105 C45.5945789,18.7162105 46.0401842,19.1585263 46.0401842,19.7058246 C46.0409605,20.2523509 45.5945789,20.6954386 45.0449474,20.6954386" id="Fill-7"></path>
                <path d="M43.0536974,24.6546667 L22.1467368,24.6546667 C21.5971053,24.6546667 21.1515,24.2123509 21.1515,23.6650526 C21.1515,23.1177544 21.5978816,22.6754386 22.1467368,22.6754386 L43.0536974,22.6754386 C43.6033289,22.6754386 44.0489342,23.1177544 44.0489342,23.6650526 C44.0497105,24.2123509 43.6033289,24.6546667 43.0536974,24.6546667" id="Fill-9"></path>
                <path d="M58.5551711,10.1670877 L50.9783289,10.1122807 L50.9946316,7.89607018 L56.3263684,7.93466667 L56.3263684,4.3637193 C56.3263684,3.17957895 55.3575263,2.21698246 54.1674342,2.21698246 L54.1674342,0.000771929825 C56.5864342,0.000771929825 58.5559474,1.95761404 58.5559474,4.36449123 L58.5559474,10.1670877 L58.5551711,10.1670877 Z" id="Fill-11"></path>
                <path d="M46.2497895,35.4840702 C45.0402895,35.4840702 44.3299605,34.9962105 43.9480132,34.5870877 C43.1181316,33.6993684 43.1786842,32.5329825 43.188,32.4025263 C43.1848947,31.2994386 42.2168289,30.3368421 41.0259605,30.3368421 L41.0259605,28.1206316 C43.4449605,28.1206316 45.4144737,30.0782456 45.4144737,32.4843509 C45.4098158,32.6356491 45.4346579,32.9289825 45.5868158,33.0849123 C45.7343158,33.2377544 46.0293158,33.2686316 46.2505658,33.2686316 L46.2505658,35.4840702 L46.2497895,35.4840702 Z" id="Fill-13"></path>
                <path d="M38.8895395,33.2454737 L48.0834474,33.2454737 C49.2743158,33.2454737 50.2423816,32.2821053 50.2423816,31.0987368 L50.2423816,4.3637193 C50.2423816,3.58407018 50.4488816,2.85073684 50.8106447,2.21698246 L19.0158553,2.21698246 C17.8249868,2.21698246 16.8569211,3.18035088 16.8569211,4.3637193 L16.8569211,28.1206316 L41.04925,28.1206316 L41.04925,30.3368421 C39.8583816,30.3368421 38.8903158,31.3002105 38.8903158,32.4835789 L38.8903158,33.2454737 L38.8895395,33.2454737 Z M48.0834474,35.4616842 L36.6607368,35.4616842 L36.6607368,32.4835789 C36.6607368,31.7031579 36.8672368,30.9705965 37.229,30.3368421 L14.6273421,30.3368421 L14.6273421,4.3637193 C14.6273421,1.95838596 16.5960789,0 19.0158553,0 L54.6316711,0 L54.6316711,2.21621053 C53.4408026,2.21621053 52.4727368,3.17957895 52.4727368,4.36294737 L52.4727368,31.0979649 C52.4719605,33.5040702 50.5032237,35.4616842 48.0834474,35.4616842 L48.0834474,35.4616842 Z" id="Fill-15"></path>
                <path d="M3.81947368,41.4178947 L34.5010263,41.4178947 C35.6918947,41.4178947 36.6599605,40.4545263 36.6599605,39.2711579 L36.6599605,32.4835789 C36.6599605,31.7031579 36.8664605,30.9705965 37.2282237,30.3368421 L6.54744737,30.3368421 C5.35657895,30.3368421 4.38851316,31.3002105 4.38851316,32.4835789 L4.38851316,39.2711579 C4.38851316,40.0515789 4.18123684,40.7841404 3.81947368,41.4178947 M34.5010263,43.6341053 L0,43.6341053 L0,41.4178947 C1.19086842,41.4178947 2.15893421,40.4545263 2.15893421,39.2711579 L2.15893421,32.4835789 C2.15893421,30.0782456 4.12767105,28.1198596 6.54744737,28.1198596 L41.0484737,28.1198596 L41.0484737,30.3360702 C39.8576053,30.3360702 38.8895395,31.2994386 38.8895395,32.482807 L38.8895395,39.270386 C38.8895395,41.6764912 36.9208026,43.6341053 34.5010263,43.6341053" id="Fill-17"></path>
            </g>
        </g>
    </g>
</svg>