<?xml version="1.0" encoding="UTF-8" standalone="no"?>
<svg width="73px" height="42px" viewBox="0 0 73 42" version="1.1" xmlns="http://www.w3.org/2000/svg" xmlns:xlink="http://www.w3.org/1999/xlink">
    <!-- Generator: Sketch 40.1 (33804) - http://www.bohemiancoding.com/sketch -->
    <title>populationpopulation</title>
    <desc>Created with Sketch.</desc>
    <defs></defs>
    <g id="Page-1" stroke="none" stroke-width="1" fill="none" fill-rule="evenodd">
        <g id="Country-REPORT-V6" transform="translate(-650.000000, -449.000000)" fill="#192127">
            <path d="M704.287975,490.2 C704.981013,490.2 705.597046,489.583966 705.597046,488.890928 L705.597046,483.885654 C705.597046,482.422574 704.981013,481.036498 703.825949,480.112447 C699.744726,476.801266 695.432489,474.414135 693.738397,473.567089 L693.738397,467.791772 C694.662447,466.944726 695.201477,465.712658 695.201477,464.403586 L695.201477,457.088186 C695.201477,452.775949 691.659283,449.233755 687.347046,449.233755 L685.806962,449.233755 C681.494726,449.233755 677.952532,452.775949 677.952532,457.088186 L677.952532,464.403586 C677.952532,465.712658 678.491561,466.944726 679.415612,467.791772 L679.415612,473.567089 C677.721519,474.414135 673.409283,476.801266 669.328059,480.112447 C668.172996,481.036498 667.556962,482.422574 667.556962,483.885654 L667.556962,488.890928 C667.556962,489.583966 668.172996,490.2 668.866034,490.2 C669.559072,490.2 670.175105,489.583966 670.175105,488.890928 L670.175105,483.885654 C670.175105,483.192616 670.483122,482.576582 670.945148,482.191561 C675.334388,478.572363 680.185654,476.108228 681.109705,475.723207 C681.648734,475.41519 682.033755,474.87616 682.033755,474.260127 L682.033755,467.252743 C682.033755,466.790717 681.802743,466.405696 681.417722,466.174684 C680.878692,465.789662 680.570675,465.173629 680.570675,464.557595 L680.570675,457.242194 C680.570675,454.316034 682.957806,452.005907 685.806962,452.005907 L687.347046,452.005907 C690.273207,452.005907 692.583333,454.393038 692.583333,457.242194 L692.583333,464.557595 C692.583333,465.250633 692.275316,465.866667 691.736287,466.174684 C691.351266,466.405696 691.120253,466.790717 691.120253,467.252743 L691.120253,474.260127 C691.120253,474.87616 691.505274,475.492194 692.044304,475.723207 C692.968354,476.185232 697.742616,478.572363 702.208861,482.191561 C702.74789,482.576582 702.978903,483.26962 702.978903,483.885654 L702.978903,488.890928 C702.978903,489.583966 703.594937,490.2 704.287975,490.2 M664.399789,460.553376 L665.631857,460.553376 C667.71097,460.553376 669.405063,462.247468 669.405063,464.326582 L669.405063,469.94789 C669.405063,470.332911 669.174051,470.717932 668.866034,470.948945 C668.481013,471.179958 668.25,471.564979 668.25,472.027004 L668.25,474.722152 C668.25,475.41519 668.866034,476.031224 669.559072,476.031224 C670.25211,476.031224 670.868143,475.41519 670.868143,474.722152 L670.868143,472.643038 C671.561181,471.95 672.023207,470.948945 672.023207,469.94789 L672.023207,464.326582 C672.023207,460.784388 669.174051,457.935232 665.631857,457.935232 L664.399789,457.935232 C660.857595,457.935232 658.008439,460.784388 658.008439,464.326582 L658.008439,469.94789 C658.008439,470.948945 658.39346,471.95 659.163502,472.643038 L659.163502,476.801266 C657.777426,477.494304 654.543249,479.342405 651.46308,481.80654 C650.53903,482.576582 650,483.731646 650,484.963713 L650,488.813924 C650,489.506962 650.616034,490.122996 651.309072,490.122996 C652.00211,490.122996 652.618143,489.583966 652.618143,488.890928 L652.618143,485.040717 C652.618143,484.578692 652.772152,484.193671 653.157173,483.962658 C656.545359,481.190506 660.241561,479.342405 660.934599,478.957384 C661.473629,478.726371 661.781646,478.110338 661.781646,477.571308 L661.781646,472.104008 C661.781646,471.641983 661.550633,471.256962 661.165612,471.025949 C660.857595,470.794937 660.626582,470.409916 660.626582,470.024895 L660.626582,464.326582 C660.626582,462.247468 662.320675,460.553376 664.399789,460.553376 M720.381857,488.890928 L720.381857,485.040717 C720.381857,484.578692 720.227848,484.193671 719.842827,483.962658 C716.454641,481.190506 712.758439,479.342405 712.065401,478.957384 C711.526371,478.726371 711.218354,478.110338 711.218354,477.571308 L711.218354,472.104008 C711.218354,471.641983 711.449367,471.256962 711.834388,471.025949 C712.142405,470.794937 712.373418,470.409916 712.373418,470.024895 L712.373418,464.326582 C712.373418,462.247468 710.679325,460.553376 708.600211,460.553376 L707.368143,460.553376 C705.28903,460.553376 703.594937,462.247468 703.594937,464.326582 L703.594937,469.94789 C703.594937,470.332911 703.825949,470.717932 704.133966,470.948945 C704.518987,471.179958 704.75,471.564979 704.75,472.027004 L704.75,474.645148 C704.75,475.338186 704.133966,475.954219 703.440928,475.954219 C702.74789,475.954219 702.131857,475.338186 702.131857,474.645148 L702.131857,472.643038 C701.438819,471.95 700.976793,470.948945 700.976793,469.94789 L700.976793,464.326582 C700.976793,460.784388 703.825949,457.935232 707.368143,457.935232 L708.600211,457.935232 C712.142405,457.935232 714.991561,460.784388 714.991561,464.326582 L714.991561,469.94789 C714.991561,470.948945 714.60654,471.95 713.836498,472.643038 L713.836498,476.801266 C715.222574,477.494304 718.456751,479.342405 721.53692,481.80654 C722.46097,482.576582 723,483.731646 723,484.963713 L723,488.813924 C723,489.506962 722.383966,490.122996 721.690928,490.122996 C720.99789,490.122996 720.381857,489.583966 720.381857,488.890928" id="population"></path>
        </g>
    </g>
</svg>