<?xml version="1.0" encoding="UTF-8" standalone="no"?>
<svg width="25px" height="28px" viewBox="0 0 25 28" version="1.1" xmlns="http://www.w3.org/2000/svg" xmlns:xlink="http://www.w3.org/1999/xlink">
    <!-- Generator: Sketch 40.2 (33826) - http://www.bohemiancoding.com/sketch -->
    <title>search</title>
    <desc>Created with Sketch.</desc>
    <defs></defs>
    <g id="Page-1" stroke="none" stroke-width="1" fill="none" fill-rule="evenodd">
        <g id="search" transform="translate(1.000000, 1.000000)" stroke="#010101" stroke-width="2">
            <path d="M13.9397543,17.102415 C11.9232369,18.2174296 9.47457811,18.5452568 7.09696456,17.8183473 C2.44183318,16.3951309 -0.178151508,11.4676563 1.24506498,6.81252493 C2.66828147,2.15739354 7.59575601,-0.462591142 12.2508874,0.960625349 C16.9060188,2.38384184 19.5260035,7.31131638 18.102787,11.9664478 C17.6171842,13.5547827 16.7236227,14.9061899 15.5721161,15.9409054 L22.1677561,24.1488324 L20.6087367,25.4016128 L13.9397543,17.102415 Z M7.21203591,16.7876825 C11.4737309,18.0906134 15.9847515,15.6920612 17.2876825,11.4303662 C18.5906134,7.16867115 16.1920612,2.65765054 11.9303662,1.35471962 C7.66867115,0.0517886976 3.15765054,2.4503409 1.85471962,6.71203591 C0.551788698,10.9737309 2.9503409,15.4847515 7.21203591,16.7876825 Z" id="Combined-Shape"></path>
        </g>
    </g>
</svg>